<mxfile host="app.diagrams.net" modified="2023-08-17T08:54:21.204Z" agent="Mozilla/5.0 (X11; Linux x86_64) AppleWebKit/537.36 (KHTML, like Gecko) Chrome/115.0.0.0 Safari/537.36" etag="oP20LPlX-7TgFXmy5lo4" version="21.6.8" type="device" pages="7">
  <diagram name="Page-1" id="d59C5zg_7T1TeNgBpkGo">
    <mxGraphModel dx="879" dy="594" grid="1" gridSize="10" guides="1" tooltips="1" connect="1" arrows="1" fold="1" page="1" pageScale="1" pageWidth="1100" pageHeight="850" math="0" shadow="0">
      <root>
        <mxCell id="0" />
        <mxCell id="1" parent="0" />
        <mxCell id="HXuZYWFXMnalEL0bIfrd-1" value="" style="rounded=0;whiteSpace=wrap;html=1;" parent="1" vertex="1">
          <mxGeometry x="80" y="50" width="320" height="530" as="geometry" />
        </mxCell>
        <mxCell id="HXuZYWFXMnalEL0bIfrd-2" value="" style="rounded=0;whiteSpace=wrap;html=1;" parent="1" vertex="1">
          <mxGeometry x="400" y="50" width="640" height="530" as="geometry" />
        </mxCell>
        <mxCell id="HXuZYWFXMnalEL0bIfrd-3" value="main thread" style="shape=hexagon;perimeter=hexagonPerimeter2;whiteSpace=wrap;html=1;fixedSize=1;fontFamily=Ubuntu;fontSource=https%3A%2F%2Ffonts.googleapis.com%2Fcss%3Ffamily%3DUbuntu;fontSize=17;" parent="1" vertex="1">
          <mxGeometry x="180" y="10" width="120" height="30" as="geometry" />
        </mxCell>
        <mxCell id="HXuZYWFXMnalEL0bIfrd-4" value="STACK" style="text;html=1;strokeColor=none;fillColor=none;align=center;verticalAlign=middle;whiteSpace=wrap;rounded=0;fontFamily=Ubuntu;fontSource=https%3A%2F%2Ffonts.googleapis.com%2Fcss%3Ffamily%3DUbuntu;fontSize=16;fontStyle=1" parent="1" vertex="1">
          <mxGeometry x="200" y="590" width="60" height="30" as="geometry" />
        </mxCell>
        <mxCell id="HXuZYWFXMnalEL0bIfrd-5" value="HEAP" style="text;html=1;strokeColor=none;fillColor=none;align=center;verticalAlign=middle;whiteSpace=wrap;rounded=0;fontFamily=Ubuntu;fontSource=https%3A%2F%2Ffonts.googleapis.com%2Fcss%3Ffamily%3DUbuntu;fontSize=16;fontStyle=1" parent="1" vertex="1">
          <mxGeometry x="510" y="590" width="60" height="30" as="geometry" />
        </mxCell>
        <mxCell id="HXuZYWFXMnalEL0bIfrd-6" value="" style="rounded=0;whiteSpace=wrap;html=1;fillColor=#d5e8d4;strokeColor=#82b366;strokeWidth=10;" parent="1" vertex="1">
          <mxGeometry x="80" y="460" width="320" height="120" as="geometry" />
        </mxCell>
        <mxCell id="HXuZYWFXMnalEL0bIfrd-7" value="main()" style="text;html=1;strokeColor=#82b366;fillColor=#d5e8d4;align=center;verticalAlign=middle;whiteSpace=wrap;rounded=0;fontFamily=Ubuntu;fontSource=https%3A%2F%2Ffonts.googleapis.com%2Fcss%3Ffamily%3DUbuntu;fontSize=17;rotation=-90;" parent="1" vertex="1">
          <mxGeometry x="6.88" y="526.88" width="86.25" height="30" as="geometry" />
        </mxCell>
        <mxCell id="HXuZYWFXMnalEL0bIfrd-14" style="edgeStyle=orthogonalEdgeStyle;rounded=0;orthogonalLoop=1;jettySize=auto;html=1;entryX=0;entryY=0.5;entryDx=0;entryDy=0;" parent="1" source="HXuZYWFXMnalEL0bIfrd-8" target="HXuZYWFXMnalEL0bIfrd-12" edge="1">
          <mxGeometry relative="1" as="geometry" />
        </mxCell>
        <mxCell id="HXuZYWFXMnalEL0bIfrd-8" value="String[] args = 0xAF10" style="rounded=0;whiteSpace=wrap;html=1;fontFamily=Ubuntu;fontSource=https%3A%2F%2Ffonts.googleapis.com%2Fcss%3Ffamily%3DUbuntu;fontSize=17;" parent="1" vertex="1">
          <mxGeometry x="80" y="460" width="320" height="40" as="geometry" />
        </mxCell>
        <mxCell id="HXuZYWFXMnalEL0bIfrd-9" value="..." style="rounded=0;whiteSpace=wrap;html=1;fontFamily=Ubuntu;fontSource=https%3A%2F%2Ffonts.googleapis.com%2Fcss%3Ffamily%3DUbuntu;fontSize=17;" parent="1" vertex="1">
          <mxGeometry x="80" y="540" width="320" height="40" as="geometry" />
        </mxCell>
        <mxCell id="HXuZYWFXMnalEL0bIfrd-10" value="" style="rounded=0;whiteSpace=wrap;html=1;" parent="1" vertex="1">
          <mxGeometry x="490" y="240" width="20" height="40" as="geometry" />
        </mxCell>
        <mxCell id="HXuZYWFXMnalEL0bIfrd-11" value="int length = 0" style="rounded=0;whiteSpace=wrap;html=1;fontSize=18;fontFamily=Ubuntu;fontSource=https%3A%2F%2Ffonts.googleapis.com%2Fcss%3Ffamily%3DUbuntu;" parent="1" vertex="1">
          <mxGeometry x="490" y="280" width="140" height="40" as="geometry" />
        </mxCell>
        <mxCell id="HXuZYWFXMnalEL0bIfrd-12" value="0xAF10" style="rounded=0;whiteSpace=wrap;html=1;fontFamily=Ubuntu;fontSource=https%3A%2F%2Ffonts.googleapis.com%2Fcss%3Ffamily%3DUbuntu;fontSize=17;fillColor=#dae8fc;strokeColor=#6c8ebf;" parent="1" vertex="1">
          <mxGeometry x="490" y="210" width="140" height="30" as="geometry" />
        </mxCell>
        <mxCell id="HXuZYWFXMnalEL0bIfrd-13" value="..." style="rounded=0;whiteSpace=wrap;html=1;fontSize=18;fontFamily=Ubuntu;fontSource=https%3A%2F%2Ffonts.googleapis.com%2Fcss%3Ffamily%3DUbuntu;" parent="1" vertex="1">
          <mxGeometry x="490" y="320" width="140" height="40" as="geometry" />
        </mxCell>
        <mxCell id="ICK5VJWrA5xjREezXN3a-1" value="&lt;font style=&quot;font-size: 20px;&quot;&gt;&lt;br&gt;&lt;/font&gt;" style="text;html=1;strokeColor=#b85450;fillColor=#f8cecc;align=left;verticalAlign=top;whiteSpace=wrap;rounded=0;fontFamily=Ubuntu;fontSource=https%3A%2F%2Ffonts.googleapis.com%2Fcss%3Ffamily%3DUbuntu;fontSize=20;" parent="1" vertex="1">
          <mxGeometry x="710" y="80" width="480" height="230" as="geometry" />
        </mxCell>
        <mxCell id="ZnlmRWFzjpU26P4w68Pg-7" style="edgeStyle=orthogonalEdgeStyle;rounded=0;orthogonalLoop=1;jettySize=auto;html=1;entryX=0;entryY=0.5;entryDx=0;entryDy=0;" edge="1" parent="1" source="3Ek7rtUzpndbFkCY8kfh-1" target="ZnlmRWFzjpU26P4w68Pg-6">
          <mxGeometry relative="1" as="geometry" />
        </mxCell>
        <mxCell id="3Ek7rtUzpndbFkCY8kfh-1" value="Point p = 0xAF11" style="rounded=0;whiteSpace=wrap;html=1;fontFamily=Ubuntu;fontSource=https%3A%2F%2Ffonts.googleapis.com%2Fcss%3Ffamily%3DUbuntu;fontSize=17;" parent="1" vertex="1">
          <mxGeometry x="80" y="500" width="320" height="40" as="geometry" />
        </mxCell>
        <mxCell id="ZnlmRWFzjpU26P4w68Pg-2" value="int x = 10" style="rounded=0;whiteSpace=wrap;html=1;fontFamily=Ubuntu;fontSource=https%3A%2F%2Ffonts.googleapis.com%2Fcss%3Ffamily%3DUbuntu;fontSize=18;" vertex="1" parent="1">
          <mxGeometry x="550" y="400" width="120" height="40" as="geometry" />
        </mxCell>
        <mxCell id="ZnlmRWFzjpU26P4w68Pg-3" value="int y = 20" style="rounded=0;whiteSpace=wrap;html=1;fontFamily=Ubuntu;fontSource=https%3A%2F%2Ffonts.googleapis.com%2Fcss%3Ffamily%3DUbuntu;fontSize=18;" vertex="1" parent="1">
          <mxGeometry x="550" y="440" width="120" height="40" as="geometry" />
        </mxCell>
        <mxCell id="ZnlmRWFzjpU26P4w68Pg-4" value="toString()" style="rounded=0;whiteSpace=wrap;html=1;fontFamily=Ubuntu;fontSource=https%3A%2F%2Ffonts.googleapis.com%2Fcss%3Ffamily%3DUbuntu;fontSize=18;" vertex="1" parent="1">
          <mxGeometry x="550" y="480" width="120" height="40" as="geometry" />
        </mxCell>
        <mxCell id="ZnlmRWFzjpU26P4w68Pg-5" value="...." style="rounded=0;whiteSpace=wrap;html=1;fontFamily=Ubuntu;fontSource=https%3A%2F%2Ffonts.googleapis.com%2Fcss%3Ffamily%3DUbuntu;fontSize=18;" vertex="1" parent="1">
          <mxGeometry x="550" y="516.88" width="120" height="40" as="geometry" />
        </mxCell>
        <mxCell id="ZnlmRWFzjpU26P4w68Pg-6" value="0xAF11" style="rounded=0;whiteSpace=wrap;html=1;fontFamily=Ubuntu;fontSource=https%3A%2F%2Ffonts.googleapis.com%2Fcss%3Ffamily%3DUbuntu;fontSize=17;fillColor=#dae8fc;strokeColor=#6c8ebf;" vertex="1" parent="1">
          <mxGeometry x="550" y="370" width="120" height="30" as="geometry" />
        </mxCell>
      </root>
    </mxGraphModel>
  </diagram>
  <diagram name="Page-2" id="SIZEffFy81iGKxv-qkKE">
    <mxGraphModel dx="879" dy="594" grid="1" gridSize="10" guides="1" tooltips="1" connect="1" arrows="1" fold="1" page="1" pageScale="1" pageWidth="1100" pageHeight="850" math="0" shadow="0">
      <root>
        <mxCell id="vQE0KxRhYRVf6KbR8VEW-0" />
        <mxCell id="vQE0KxRhYRVf6KbR8VEW-1" parent="vQE0KxRhYRVf6KbR8VEW-0" />
        <mxCell id="vQE0KxRhYRVf6KbR8VEW-2" value="" style="rounded=0;whiteSpace=wrap;html=1;" vertex="1" parent="vQE0KxRhYRVf6KbR8VEW-1">
          <mxGeometry x="80" y="50" width="320" height="530" as="geometry" />
        </mxCell>
        <mxCell id="vQE0KxRhYRVf6KbR8VEW-3" value="" style="rounded=0;whiteSpace=wrap;html=1;" vertex="1" parent="vQE0KxRhYRVf6KbR8VEW-1">
          <mxGeometry x="400" y="50" width="640" height="530" as="geometry" />
        </mxCell>
        <mxCell id="vQE0KxRhYRVf6KbR8VEW-4" value="main thread" style="shape=hexagon;perimeter=hexagonPerimeter2;whiteSpace=wrap;html=1;fixedSize=1;fontFamily=Ubuntu;fontSource=https%3A%2F%2Ffonts.googleapis.com%2Fcss%3Ffamily%3DUbuntu;fontSize=17;" vertex="1" parent="vQE0KxRhYRVf6KbR8VEW-1">
          <mxGeometry x="180" y="10" width="120" height="30" as="geometry" />
        </mxCell>
        <mxCell id="vQE0KxRhYRVf6KbR8VEW-5" value="STACK" style="text;html=1;strokeColor=none;fillColor=none;align=center;verticalAlign=middle;whiteSpace=wrap;rounded=0;fontFamily=Ubuntu;fontSource=https%3A%2F%2Ffonts.googleapis.com%2Fcss%3Ffamily%3DUbuntu;fontSize=16;fontStyle=1" vertex="1" parent="vQE0KxRhYRVf6KbR8VEW-1">
          <mxGeometry x="200" y="590" width="60" height="30" as="geometry" />
        </mxCell>
        <mxCell id="vQE0KxRhYRVf6KbR8VEW-6" value="HEAP" style="text;html=1;strokeColor=none;fillColor=none;align=center;verticalAlign=middle;whiteSpace=wrap;rounded=0;fontFamily=Ubuntu;fontSource=https%3A%2F%2Ffonts.googleapis.com%2Fcss%3Ffamily%3DUbuntu;fontSize=16;fontStyle=1" vertex="1" parent="vQE0KxRhYRVf6KbR8VEW-1">
          <mxGeometry x="510" y="590" width="60" height="30" as="geometry" />
        </mxCell>
        <mxCell id="vQE0KxRhYRVf6KbR8VEW-7" value="" style="rounded=0;whiteSpace=wrap;html=1;fillColor=#d5e8d4;strokeColor=#82b366;strokeWidth=10;" vertex="1" parent="vQE0KxRhYRVf6KbR8VEW-1">
          <mxGeometry x="80" y="460" width="320" height="120" as="geometry" />
        </mxCell>
        <mxCell id="vQE0KxRhYRVf6KbR8VEW-8" value="main()" style="text;html=1;strokeColor=#82b366;fillColor=#d5e8d4;align=center;verticalAlign=middle;whiteSpace=wrap;rounded=0;fontFamily=Ubuntu;fontSource=https%3A%2F%2Ffonts.googleapis.com%2Fcss%3Ffamily%3DUbuntu;fontSize=17;rotation=-90;" vertex="1" parent="vQE0KxRhYRVf6KbR8VEW-1">
          <mxGeometry x="6.88" y="526.88" width="86.25" height="30" as="geometry" />
        </mxCell>
        <mxCell id="vQE0KxRhYRVf6KbR8VEW-9" style="edgeStyle=orthogonalEdgeStyle;rounded=0;orthogonalLoop=1;jettySize=auto;html=1;entryX=0;entryY=0.5;entryDx=0;entryDy=0;" edge="1" parent="vQE0KxRhYRVf6KbR8VEW-1" source="vQE0KxRhYRVf6KbR8VEW-10" target="vQE0KxRhYRVf6KbR8VEW-14">
          <mxGeometry relative="1" as="geometry" />
        </mxCell>
        <mxCell id="vQE0KxRhYRVf6KbR8VEW-10" value="String[] args = 0xAF10" style="rounded=0;whiteSpace=wrap;html=1;fontFamily=Ubuntu;fontSource=https%3A%2F%2Ffonts.googleapis.com%2Fcss%3Ffamily%3DUbuntu;fontSize=17;" vertex="1" parent="vQE0KxRhYRVf6KbR8VEW-1">
          <mxGeometry x="80" y="460" width="320" height="40" as="geometry" />
        </mxCell>
        <mxCell id="vQE0KxRhYRVf6KbR8VEW-11" value="..." style="rounded=0;whiteSpace=wrap;html=1;fontFamily=Ubuntu;fontSource=https%3A%2F%2Ffonts.googleapis.com%2Fcss%3Ffamily%3DUbuntu;fontSize=17;" vertex="1" parent="vQE0KxRhYRVf6KbR8VEW-1">
          <mxGeometry x="80" y="540" width="320" height="40" as="geometry" />
        </mxCell>
        <mxCell id="vQE0KxRhYRVf6KbR8VEW-12" value="" style="rounded=0;whiteSpace=wrap;html=1;" vertex="1" parent="vQE0KxRhYRVf6KbR8VEW-1">
          <mxGeometry x="490" y="240" width="20" height="40" as="geometry" />
        </mxCell>
        <mxCell id="vQE0KxRhYRVf6KbR8VEW-13" value="int length = 0" style="rounded=0;whiteSpace=wrap;html=1;fontSize=18;fontFamily=Ubuntu;fontSource=https%3A%2F%2Ffonts.googleapis.com%2Fcss%3Ffamily%3DUbuntu;" vertex="1" parent="vQE0KxRhYRVf6KbR8VEW-1">
          <mxGeometry x="490" y="280" width="140" height="40" as="geometry" />
        </mxCell>
        <mxCell id="vQE0KxRhYRVf6KbR8VEW-14" value="0xAF10" style="rounded=0;whiteSpace=wrap;html=1;fontFamily=Ubuntu;fontSource=https%3A%2F%2Ffonts.googleapis.com%2Fcss%3Ffamily%3DUbuntu;fontSize=17;fillColor=#dae8fc;strokeColor=#6c8ebf;" vertex="1" parent="vQE0KxRhYRVf6KbR8VEW-1">
          <mxGeometry x="490" y="210" width="140" height="30" as="geometry" />
        </mxCell>
        <mxCell id="vQE0KxRhYRVf6KbR8VEW-15" value="..." style="rounded=0;whiteSpace=wrap;html=1;fontSize=18;fontFamily=Ubuntu;fontSource=https%3A%2F%2Ffonts.googleapis.com%2Fcss%3Ffamily%3DUbuntu;" vertex="1" parent="vQE0KxRhYRVf6KbR8VEW-1">
          <mxGeometry x="490" y="320" width="140" height="40" as="geometry" />
        </mxCell>
        <mxCell id="vQE0KxRhYRVf6KbR8VEW-16" value="&lt;font style=&quot;font-size: 20px;&quot;&gt;&lt;br&gt;&lt;/font&gt;" style="text;html=1;strokeColor=#b85450;fillColor=#f8cecc;align=left;verticalAlign=top;whiteSpace=wrap;rounded=0;fontFamily=Ubuntu;fontSource=https%3A%2F%2Ffonts.googleapis.com%2Fcss%3Ffamily%3DUbuntu;fontSize=20;" vertex="1" parent="vQE0KxRhYRVf6KbR8VEW-1">
          <mxGeometry x="710" y="80" width="480" height="230" as="geometry" />
        </mxCell>
        <mxCell id="vQE0KxRhYRVf6KbR8VEW-17" style="edgeStyle=orthogonalEdgeStyle;rounded=0;orthogonalLoop=1;jettySize=auto;html=1;entryX=0;entryY=0.5;entryDx=0;entryDy=0;" edge="1" parent="vQE0KxRhYRVf6KbR8VEW-1" source="vQE0KxRhYRVf6KbR8VEW-18" target="vQE0KxRhYRVf6KbR8VEW-23">
          <mxGeometry relative="1" as="geometry" />
        </mxCell>
        <mxCell id="vQE0KxRhYRVf6KbR8VEW-18" value="Point p = 0xAF11" style="rounded=0;whiteSpace=wrap;html=1;fontFamily=Ubuntu;fontSource=https%3A%2F%2Ffonts.googleapis.com%2Fcss%3Ffamily%3DUbuntu;fontSize=17;" vertex="1" parent="vQE0KxRhYRVf6KbR8VEW-1">
          <mxGeometry x="80" y="500" width="320" height="40" as="geometry" />
        </mxCell>
        <mxCell id="vQE0KxRhYRVf6KbR8VEW-19" value="int x = 10" style="rounded=0;whiteSpace=wrap;html=1;fontFamily=Ubuntu;fontSource=https%3A%2F%2Ffonts.googleapis.com%2Fcss%3Ffamily%3DUbuntu;fontSize=18;" vertex="1" parent="vQE0KxRhYRVf6KbR8VEW-1">
          <mxGeometry x="550" y="400" width="120" height="40" as="geometry" />
        </mxCell>
        <mxCell id="vQE0KxRhYRVf6KbR8VEW-20" value="int y = 20" style="rounded=0;whiteSpace=wrap;html=1;fontFamily=Ubuntu;fontSource=https%3A%2F%2Ffonts.googleapis.com%2Fcss%3Ffamily%3DUbuntu;fontSize=18;" vertex="1" parent="vQE0KxRhYRVf6KbR8VEW-1">
          <mxGeometry x="550" y="440" width="120" height="40" as="geometry" />
        </mxCell>
        <mxCell id="vQE0KxRhYRVf6KbR8VEW-21" value="toString()" style="rounded=0;whiteSpace=wrap;html=1;fontFamily=Ubuntu;fontSource=https%3A%2F%2Ffonts.googleapis.com%2Fcss%3Ffamily%3DUbuntu;fontSize=18;" vertex="1" parent="vQE0KxRhYRVf6KbR8VEW-1">
          <mxGeometry x="550" y="480" width="120" height="40" as="geometry" />
        </mxCell>
        <mxCell id="vQE0KxRhYRVf6KbR8VEW-22" value="...." style="rounded=0;whiteSpace=wrap;html=1;fontFamily=Ubuntu;fontSource=https%3A%2F%2Ffonts.googleapis.com%2Fcss%3Ffamily%3DUbuntu;fontSize=18;" vertex="1" parent="vQE0KxRhYRVf6KbR8VEW-1">
          <mxGeometry x="550" y="516.88" width="120" height="40" as="geometry" />
        </mxCell>
        <mxCell id="vQE0KxRhYRVf6KbR8VEW-23" value="0xAF11" style="rounded=0;whiteSpace=wrap;html=1;fontFamily=Ubuntu;fontSource=https%3A%2F%2Ffonts.googleapis.com%2Fcss%3Ffamily%3DUbuntu;fontSize=17;fillColor=#dae8fc;strokeColor=#6c8ebf;" vertex="1" parent="vQE0KxRhYRVf6KbR8VEW-1">
          <mxGeometry x="550" y="370" width="120" height="30" as="geometry" />
        </mxCell>
        <mxCell id="JUTLt_YxI18DFn3u8I4W-0" value="" style="rounded=0;whiteSpace=wrap;html=1;fillColor=#e1d5e7;strokeColor=#9673a6;strokeWidth=10;" vertex="1" parent="vQE0KxRhYRVf6KbR8VEW-1">
          <mxGeometry x="80" y="360" width="320" height="90" as="geometry" />
        </mxCell>
        <mxCell id="JUTLt_YxI18DFn3u8I4W-1" value="updatePoints1()" style="text;html=1;strokeColor=#9673a6;fillColor=#e1d5e7;align=center;verticalAlign=middle;whiteSpace=wrap;rounded=0;fontFamily=Ubuntu;fontSource=https%3A%2F%2Ffonts.googleapis.com%2Fcss%3Ffamily%3DUbuntu;fontSize=17;rotation=-90;" vertex="1" parent="vQE0KxRhYRVf6KbR8VEW-1">
          <mxGeometry x="-31.56" y="370" width="163.12" height="30" as="geometry" />
        </mxCell>
        <mxCell id="JUTLt_YxI18DFn3u8I4W-4" style="edgeStyle=orthogonalEdgeStyle;rounded=0;orthogonalLoop=1;jettySize=auto;html=1;entryX=0;entryY=0.5;entryDx=0;entryDy=0;" edge="1" parent="vQE0KxRhYRVf6KbR8VEW-1" source="JUTLt_YxI18DFn3u8I4W-2" target="vQE0KxRhYRVf6KbR8VEW-23">
          <mxGeometry relative="1" as="geometry" />
        </mxCell>
        <mxCell id="JUTLt_YxI18DFn3u8I4W-2" value="Point p = 0xAF11" style="rounded=0;whiteSpace=wrap;html=1;fontFamily=Ubuntu;fontSource=https%3A%2F%2Ffonts.googleapis.com%2Fcss%3Ffamily%3DUbuntu;fontSize=17;" vertex="1" parent="vQE0KxRhYRVf6KbR8VEW-1">
          <mxGeometry x="80" y="365" width="320" height="40" as="geometry" />
        </mxCell>
        <mxCell id="JUTLt_YxI18DFn3u8I4W-3" value="..." style="rounded=0;whiteSpace=wrap;html=1;fontFamily=Ubuntu;fontSource=https%3A%2F%2Ffonts.googleapis.com%2Fcss%3Ffamily%3DUbuntu;fontSize=17;" vertex="1" parent="vQE0KxRhYRVf6KbR8VEW-1">
          <mxGeometry x="80" y="405" width="320" height="40" as="geometry" />
        </mxCell>
      </root>
    </mxGraphModel>
  </diagram>
  <diagram name="Page-3" id="AzC0DtKfzyzsReO3xme2">
    <mxGraphModel dx="879" dy="594" grid="1" gridSize="10" guides="1" tooltips="1" connect="1" arrows="1" fold="1" page="1" pageScale="1" pageWidth="1100" pageHeight="850" math="0" shadow="0">
      <root>
        <mxCell id="GkUIK27pLOYvTzTCM30h-0" />
        <mxCell id="GkUIK27pLOYvTzTCM30h-1" parent="GkUIK27pLOYvTzTCM30h-0" />
        <mxCell id="GkUIK27pLOYvTzTCM30h-2" value="" style="rounded=0;whiteSpace=wrap;html=1;" vertex="1" parent="GkUIK27pLOYvTzTCM30h-1">
          <mxGeometry x="80" y="50" width="320" height="530" as="geometry" />
        </mxCell>
        <mxCell id="GkUIK27pLOYvTzTCM30h-3" value="" style="rounded=0;whiteSpace=wrap;html=1;" vertex="1" parent="GkUIK27pLOYvTzTCM30h-1">
          <mxGeometry x="400" y="50" width="640" height="530" as="geometry" />
        </mxCell>
        <mxCell id="GkUIK27pLOYvTzTCM30h-4" value="main thread" style="shape=hexagon;perimeter=hexagonPerimeter2;whiteSpace=wrap;html=1;fixedSize=1;fontFamily=Ubuntu;fontSource=https%3A%2F%2Ffonts.googleapis.com%2Fcss%3Ffamily%3DUbuntu;fontSize=17;" vertex="1" parent="GkUIK27pLOYvTzTCM30h-1">
          <mxGeometry x="180" y="10" width="120" height="30" as="geometry" />
        </mxCell>
        <mxCell id="GkUIK27pLOYvTzTCM30h-5" value="STACK" style="text;html=1;strokeColor=none;fillColor=none;align=center;verticalAlign=middle;whiteSpace=wrap;rounded=0;fontFamily=Ubuntu;fontSource=https%3A%2F%2Ffonts.googleapis.com%2Fcss%3Ffamily%3DUbuntu;fontSize=16;fontStyle=1" vertex="1" parent="GkUIK27pLOYvTzTCM30h-1">
          <mxGeometry x="200" y="590" width="60" height="30" as="geometry" />
        </mxCell>
        <mxCell id="GkUIK27pLOYvTzTCM30h-6" value="HEAP" style="text;html=1;strokeColor=none;fillColor=none;align=center;verticalAlign=middle;whiteSpace=wrap;rounded=0;fontFamily=Ubuntu;fontSource=https%3A%2F%2Ffonts.googleapis.com%2Fcss%3Ffamily%3DUbuntu;fontSize=16;fontStyle=1" vertex="1" parent="GkUIK27pLOYvTzTCM30h-1">
          <mxGeometry x="510" y="590" width="60" height="30" as="geometry" />
        </mxCell>
        <mxCell id="GkUIK27pLOYvTzTCM30h-7" value="" style="rounded=0;whiteSpace=wrap;html=1;fillColor=#d5e8d4;strokeColor=#82b366;strokeWidth=10;" vertex="1" parent="GkUIK27pLOYvTzTCM30h-1">
          <mxGeometry x="80" y="460" width="320" height="120" as="geometry" />
        </mxCell>
        <mxCell id="GkUIK27pLOYvTzTCM30h-8" value="main()" style="text;html=1;strokeColor=#82b366;fillColor=#d5e8d4;align=center;verticalAlign=middle;whiteSpace=wrap;rounded=0;fontFamily=Ubuntu;fontSource=https%3A%2F%2Ffonts.googleapis.com%2Fcss%3Ffamily%3DUbuntu;fontSize=17;rotation=-90;" vertex="1" parent="GkUIK27pLOYvTzTCM30h-1">
          <mxGeometry x="6.88" y="526.88" width="86.25" height="30" as="geometry" />
        </mxCell>
        <mxCell id="GkUIK27pLOYvTzTCM30h-9" style="edgeStyle=orthogonalEdgeStyle;rounded=0;orthogonalLoop=1;jettySize=auto;html=1;entryX=0;entryY=0.5;entryDx=0;entryDy=0;" edge="1" parent="GkUIK27pLOYvTzTCM30h-1" source="GkUIK27pLOYvTzTCM30h-10" target="GkUIK27pLOYvTzTCM30h-14">
          <mxGeometry relative="1" as="geometry" />
        </mxCell>
        <mxCell id="GkUIK27pLOYvTzTCM30h-10" value="String[] args = 0xAF10" style="rounded=0;whiteSpace=wrap;html=1;fontFamily=Ubuntu;fontSource=https%3A%2F%2Ffonts.googleapis.com%2Fcss%3Ffamily%3DUbuntu;fontSize=17;" vertex="1" parent="GkUIK27pLOYvTzTCM30h-1">
          <mxGeometry x="80" y="460" width="320" height="40" as="geometry" />
        </mxCell>
        <mxCell id="GkUIK27pLOYvTzTCM30h-11" value="..." style="rounded=0;whiteSpace=wrap;html=1;fontFamily=Ubuntu;fontSource=https%3A%2F%2Ffonts.googleapis.com%2Fcss%3Ffamily%3DUbuntu;fontSize=17;" vertex="1" parent="GkUIK27pLOYvTzTCM30h-1">
          <mxGeometry x="80" y="540" width="320" height="40" as="geometry" />
        </mxCell>
        <mxCell id="GkUIK27pLOYvTzTCM30h-12" value="" style="rounded=0;whiteSpace=wrap;html=1;" vertex="1" parent="GkUIK27pLOYvTzTCM30h-1">
          <mxGeometry x="490" y="240" width="20" height="40" as="geometry" />
        </mxCell>
        <mxCell id="GkUIK27pLOYvTzTCM30h-13" value="int length = 0" style="rounded=0;whiteSpace=wrap;html=1;fontSize=18;fontFamily=Ubuntu;fontSource=https%3A%2F%2Ffonts.googleapis.com%2Fcss%3Ffamily%3DUbuntu;" vertex="1" parent="GkUIK27pLOYvTzTCM30h-1">
          <mxGeometry x="490" y="280" width="140" height="40" as="geometry" />
        </mxCell>
        <mxCell id="GkUIK27pLOYvTzTCM30h-14" value="0xAF10" style="rounded=0;whiteSpace=wrap;html=1;fontFamily=Ubuntu;fontSource=https%3A%2F%2Ffonts.googleapis.com%2Fcss%3Ffamily%3DUbuntu;fontSize=17;fillColor=#dae8fc;strokeColor=#6c8ebf;" vertex="1" parent="GkUIK27pLOYvTzTCM30h-1">
          <mxGeometry x="490" y="210" width="140" height="30" as="geometry" />
        </mxCell>
        <mxCell id="GkUIK27pLOYvTzTCM30h-15" value="..." style="rounded=0;whiteSpace=wrap;html=1;fontSize=18;fontFamily=Ubuntu;fontSource=https%3A%2F%2Ffonts.googleapis.com%2Fcss%3Ffamily%3DUbuntu;" vertex="1" parent="GkUIK27pLOYvTzTCM30h-1">
          <mxGeometry x="490" y="320" width="140" height="40" as="geometry" />
        </mxCell>
        <mxCell id="GkUIK27pLOYvTzTCM30h-16" value="&lt;font style=&quot;font-size: 20px;&quot;&gt;&lt;br&gt;&lt;/font&gt;" style="text;html=1;strokeColor=#b85450;fillColor=#f8cecc;align=left;verticalAlign=top;whiteSpace=wrap;rounded=0;fontFamily=Ubuntu;fontSource=https%3A%2F%2Ffonts.googleapis.com%2Fcss%3Ffamily%3DUbuntu;fontSize=20;" vertex="1" parent="GkUIK27pLOYvTzTCM30h-1">
          <mxGeometry x="710" y="80" width="480" height="230" as="geometry" />
        </mxCell>
        <mxCell id="GkUIK27pLOYvTzTCM30h-17" style="edgeStyle=orthogonalEdgeStyle;rounded=0;orthogonalLoop=1;jettySize=auto;html=1;entryX=0;entryY=0.5;entryDx=0;entryDy=0;" edge="1" parent="GkUIK27pLOYvTzTCM30h-1" source="GkUIK27pLOYvTzTCM30h-18" target="GkUIK27pLOYvTzTCM30h-23">
          <mxGeometry relative="1" as="geometry" />
        </mxCell>
        <mxCell id="GkUIK27pLOYvTzTCM30h-18" value="Point p = 0xAF11" style="rounded=0;whiteSpace=wrap;html=1;fontFamily=Ubuntu;fontSource=https%3A%2F%2Ffonts.googleapis.com%2Fcss%3Ffamily%3DUbuntu;fontSize=17;" vertex="1" parent="GkUIK27pLOYvTzTCM30h-1">
          <mxGeometry x="80" y="500" width="320" height="40" as="geometry" />
        </mxCell>
        <mxCell id="GkUIK27pLOYvTzTCM30h-19" value="int x = 10" style="rounded=0;whiteSpace=wrap;html=1;fontFamily=Ubuntu;fontSource=https%3A%2F%2Ffonts.googleapis.com%2Fcss%3Ffamily%3DUbuntu;fontSize=18;" vertex="1" parent="GkUIK27pLOYvTzTCM30h-1">
          <mxGeometry x="550" y="400" width="120" height="40" as="geometry" />
        </mxCell>
        <mxCell id="GkUIK27pLOYvTzTCM30h-20" value="int y = 20" style="rounded=0;whiteSpace=wrap;html=1;fontFamily=Ubuntu;fontSource=https%3A%2F%2Ffonts.googleapis.com%2Fcss%3Ffamily%3DUbuntu;fontSize=18;" vertex="1" parent="GkUIK27pLOYvTzTCM30h-1">
          <mxGeometry x="550" y="440" width="120" height="40" as="geometry" />
        </mxCell>
        <mxCell id="GkUIK27pLOYvTzTCM30h-21" value="toString()" style="rounded=0;whiteSpace=wrap;html=1;fontFamily=Ubuntu;fontSource=https%3A%2F%2Ffonts.googleapis.com%2Fcss%3Ffamily%3DUbuntu;fontSize=18;" vertex="1" parent="GkUIK27pLOYvTzTCM30h-1">
          <mxGeometry x="550" y="480" width="120" height="40" as="geometry" />
        </mxCell>
        <mxCell id="GkUIK27pLOYvTzTCM30h-22" value="...." style="rounded=0;whiteSpace=wrap;html=1;fontFamily=Ubuntu;fontSource=https%3A%2F%2Ffonts.googleapis.com%2Fcss%3Ffamily%3DUbuntu;fontSize=18;" vertex="1" parent="GkUIK27pLOYvTzTCM30h-1">
          <mxGeometry x="550" y="516.88" width="120" height="40" as="geometry" />
        </mxCell>
        <mxCell id="GkUIK27pLOYvTzTCM30h-23" value="0xAF11" style="rounded=0;whiteSpace=wrap;html=1;fontFamily=Ubuntu;fontSource=https%3A%2F%2Ffonts.googleapis.com%2Fcss%3Ffamily%3DUbuntu;fontSize=17;fillColor=#dae8fc;strokeColor=#6c8ebf;" vertex="1" parent="GkUIK27pLOYvTzTCM30h-1">
          <mxGeometry x="550" y="370" width="120" height="30" as="geometry" />
        </mxCell>
        <mxCell id="GkUIK27pLOYvTzTCM30h-24" value="" style="rounded=0;whiteSpace=wrap;html=1;fillColor=#e1d5e7;strokeColor=#9673a6;strokeWidth=10;" vertex="1" parent="GkUIK27pLOYvTzTCM30h-1">
          <mxGeometry x="80" y="360" width="320" height="90" as="geometry" />
        </mxCell>
        <mxCell id="GkUIK27pLOYvTzTCM30h-25" value="updatePoints1()" style="text;html=1;strokeColor=#9673a6;fillColor=#e1d5e7;align=center;verticalAlign=middle;whiteSpace=wrap;rounded=0;fontFamily=Ubuntu;fontSource=https%3A%2F%2Ffonts.googleapis.com%2Fcss%3Ffamily%3DUbuntu;fontSize=17;rotation=-90;" vertex="1" parent="GkUIK27pLOYvTzTCM30h-1">
          <mxGeometry x="-31.56" y="370" width="163.12" height="30" as="geometry" />
        </mxCell>
        <mxCell id="GkUIK27pLOYvTzTCM30h-26" style="edgeStyle=orthogonalEdgeStyle;rounded=0;orthogonalLoop=1;jettySize=auto;html=1;entryX=0;entryY=0.25;entryDx=0;entryDy=0;" edge="1" parent="GkUIK27pLOYvTzTCM30h-1" source="GkUIK27pLOYvTzTCM30h-27" target="hVWz6owVBz0eg7ZsaPYf-4">
          <mxGeometry relative="1" as="geometry">
            <Array as="points">
              <mxPoint x="510" y="370" />
              <mxPoint x="510" y="348" />
            </Array>
          </mxGeometry>
        </mxCell>
        <mxCell id="GkUIK27pLOYvTzTCM30h-27" value="Point p = 0xAF12" style="rounded=0;whiteSpace=wrap;html=1;fontFamily=Ubuntu;fontSource=https%3A%2F%2Ffonts.googleapis.com%2Fcss%3Ffamily%3DUbuntu;fontSize=17;" vertex="1" parent="GkUIK27pLOYvTzTCM30h-1">
          <mxGeometry x="80" y="365" width="320" height="40" as="geometry" />
        </mxCell>
        <mxCell id="GkUIK27pLOYvTzTCM30h-28" value="..." style="rounded=0;whiteSpace=wrap;html=1;fontFamily=Ubuntu;fontSource=https%3A%2F%2Ffonts.googleapis.com%2Fcss%3Ffamily%3DUbuntu;fontSize=17;" vertex="1" parent="GkUIK27pLOYvTzTCM30h-1">
          <mxGeometry x="80" y="405" width="320" height="40" as="geometry" />
        </mxCell>
        <mxCell id="hVWz6owVBz0eg7ZsaPYf-0" value="int x = 50" style="rounded=0;whiteSpace=wrap;html=1;fontFamily=Ubuntu;fontSource=https%3A%2F%2Ffonts.googleapis.com%2Fcss%3Ffamily%3DUbuntu;fontSize=18;" vertex="1" parent="GkUIK27pLOYvTzTCM30h-1">
          <mxGeometry x="700" y="370" width="120" height="40" as="geometry" />
        </mxCell>
        <mxCell id="hVWz6owVBz0eg7ZsaPYf-1" value="int y = 50" style="rounded=0;whiteSpace=wrap;html=1;fontFamily=Ubuntu;fontSource=https%3A%2F%2Ffonts.googleapis.com%2Fcss%3Ffamily%3DUbuntu;fontSize=18;" vertex="1" parent="GkUIK27pLOYvTzTCM30h-1">
          <mxGeometry x="700" y="410" width="120" height="40" as="geometry" />
        </mxCell>
        <mxCell id="hVWz6owVBz0eg7ZsaPYf-2" value="toString()" style="rounded=0;whiteSpace=wrap;html=1;fontFamily=Ubuntu;fontSource=https%3A%2F%2Ffonts.googleapis.com%2Fcss%3Ffamily%3DUbuntu;fontSize=18;" vertex="1" parent="GkUIK27pLOYvTzTCM30h-1">
          <mxGeometry x="700" y="450" width="120" height="40" as="geometry" />
        </mxCell>
        <mxCell id="hVWz6owVBz0eg7ZsaPYf-3" value="...." style="rounded=0;whiteSpace=wrap;html=1;fontFamily=Ubuntu;fontSource=https%3A%2F%2Ffonts.googleapis.com%2Fcss%3Ffamily%3DUbuntu;fontSize=18;" vertex="1" parent="GkUIK27pLOYvTzTCM30h-1">
          <mxGeometry x="700" y="486.88" width="120" height="40" as="geometry" />
        </mxCell>
        <mxCell id="hVWz6owVBz0eg7ZsaPYf-4" value="0xAF12" style="rounded=0;whiteSpace=wrap;html=1;fontFamily=Ubuntu;fontSource=https%3A%2F%2Ffonts.googleapis.com%2Fcss%3Ffamily%3DUbuntu;fontSize=17;fillColor=#dae8fc;strokeColor=#6c8ebf;" vertex="1" parent="GkUIK27pLOYvTzTCM30h-1">
          <mxGeometry x="700" y="340" width="120" height="30" as="geometry" />
        </mxCell>
      </root>
    </mxGraphModel>
  </diagram>
  <diagram name="Page-4" id="vLOVTSbRpTd7OqykUmj7">
    <mxGraphModel dx="879" dy="594" grid="1" gridSize="10" guides="1" tooltips="1" connect="1" arrows="1" fold="1" page="1" pageScale="1" pageWidth="1100" pageHeight="850" math="0" shadow="0">
      <root>
        <mxCell id="lziAy8kxDZokDsshVYhc-0" />
        <mxCell id="lziAy8kxDZokDsshVYhc-1" parent="lziAy8kxDZokDsshVYhc-0" />
        <mxCell id="lziAy8kxDZokDsshVYhc-2" value="" style="rounded=0;whiteSpace=wrap;html=1;" vertex="1" parent="lziAy8kxDZokDsshVYhc-1">
          <mxGeometry x="80" y="50" width="320" height="530" as="geometry" />
        </mxCell>
        <mxCell id="lziAy8kxDZokDsshVYhc-3" value="" style="rounded=0;whiteSpace=wrap;html=1;" vertex="1" parent="lziAy8kxDZokDsshVYhc-1">
          <mxGeometry x="400" y="50" width="640" height="530" as="geometry" />
        </mxCell>
        <mxCell id="lziAy8kxDZokDsshVYhc-4" value="main thread" style="shape=hexagon;perimeter=hexagonPerimeter2;whiteSpace=wrap;html=1;fixedSize=1;fontFamily=Ubuntu;fontSource=https%3A%2F%2Ffonts.googleapis.com%2Fcss%3Ffamily%3DUbuntu;fontSize=17;" vertex="1" parent="lziAy8kxDZokDsshVYhc-1">
          <mxGeometry x="180" y="10" width="120" height="30" as="geometry" />
        </mxCell>
        <mxCell id="lziAy8kxDZokDsshVYhc-5" value="STACK" style="text;html=1;strokeColor=none;fillColor=none;align=center;verticalAlign=middle;whiteSpace=wrap;rounded=0;fontFamily=Ubuntu;fontSource=https%3A%2F%2Ffonts.googleapis.com%2Fcss%3Ffamily%3DUbuntu;fontSize=16;fontStyle=1" vertex="1" parent="lziAy8kxDZokDsshVYhc-1">
          <mxGeometry x="200" y="590" width="60" height="30" as="geometry" />
        </mxCell>
        <mxCell id="lziAy8kxDZokDsshVYhc-6" value="HEAP" style="text;html=1;strokeColor=none;fillColor=none;align=center;verticalAlign=middle;whiteSpace=wrap;rounded=0;fontFamily=Ubuntu;fontSource=https%3A%2F%2Ffonts.googleapis.com%2Fcss%3Ffamily%3DUbuntu;fontSize=16;fontStyle=1" vertex="1" parent="lziAy8kxDZokDsshVYhc-1">
          <mxGeometry x="510" y="590" width="60" height="30" as="geometry" />
        </mxCell>
        <mxCell id="lziAy8kxDZokDsshVYhc-7" value="" style="rounded=0;whiteSpace=wrap;html=1;fillColor=#d5e8d4;strokeColor=#82b366;strokeWidth=10;" vertex="1" parent="lziAy8kxDZokDsshVYhc-1">
          <mxGeometry x="80" y="460" width="320" height="120" as="geometry" />
        </mxCell>
        <mxCell id="lziAy8kxDZokDsshVYhc-8" value="main()" style="text;html=1;strokeColor=#82b366;fillColor=#d5e8d4;align=center;verticalAlign=middle;whiteSpace=wrap;rounded=0;fontFamily=Ubuntu;fontSource=https%3A%2F%2Ffonts.googleapis.com%2Fcss%3Ffamily%3DUbuntu;fontSize=17;rotation=-90;" vertex="1" parent="lziAy8kxDZokDsshVYhc-1">
          <mxGeometry x="6.88" y="526.88" width="86.25" height="30" as="geometry" />
        </mxCell>
        <mxCell id="lziAy8kxDZokDsshVYhc-9" style="edgeStyle=orthogonalEdgeStyle;rounded=0;orthogonalLoop=1;jettySize=auto;html=1;entryX=0;entryY=0.5;entryDx=0;entryDy=0;" edge="1" parent="lziAy8kxDZokDsshVYhc-1" source="lziAy8kxDZokDsshVYhc-10" target="lziAy8kxDZokDsshVYhc-14">
          <mxGeometry relative="1" as="geometry" />
        </mxCell>
        <mxCell id="lziAy8kxDZokDsshVYhc-10" value="String[] args = 0xAF10" style="rounded=0;whiteSpace=wrap;html=1;fontFamily=Ubuntu;fontSource=https%3A%2F%2Ffonts.googleapis.com%2Fcss%3Ffamily%3DUbuntu;fontSize=17;" vertex="1" parent="lziAy8kxDZokDsshVYhc-1">
          <mxGeometry x="80" y="460" width="320" height="40" as="geometry" />
        </mxCell>
        <mxCell id="lziAy8kxDZokDsshVYhc-11" value="..." style="rounded=0;whiteSpace=wrap;html=1;fontFamily=Ubuntu;fontSource=https%3A%2F%2Ffonts.googleapis.com%2Fcss%3Ffamily%3DUbuntu;fontSize=17;" vertex="1" parent="lziAy8kxDZokDsshVYhc-1">
          <mxGeometry x="80" y="540" width="320" height="40" as="geometry" />
        </mxCell>
        <mxCell id="lziAy8kxDZokDsshVYhc-12" value="" style="rounded=0;whiteSpace=wrap;html=1;" vertex="1" parent="lziAy8kxDZokDsshVYhc-1">
          <mxGeometry x="490" y="240" width="20" height="40" as="geometry" />
        </mxCell>
        <mxCell id="lziAy8kxDZokDsshVYhc-13" value="int length = 0" style="rounded=0;whiteSpace=wrap;html=1;fontSize=18;fontFamily=Ubuntu;fontSource=https%3A%2F%2Ffonts.googleapis.com%2Fcss%3Ffamily%3DUbuntu;" vertex="1" parent="lziAy8kxDZokDsshVYhc-1">
          <mxGeometry x="490" y="280" width="140" height="40" as="geometry" />
        </mxCell>
        <mxCell id="lziAy8kxDZokDsshVYhc-14" value="0xAF10" style="rounded=0;whiteSpace=wrap;html=1;fontFamily=Ubuntu;fontSource=https%3A%2F%2Ffonts.googleapis.com%2Fcss%3Ffamily%3DUbuntu;fontSize=17;fillColor=#dae8fc;strokeColor=#6c8ebf;" vertex="1" parent="lziAy8kxDZokDsshVYhc-1">
          <mxGeometry x="490" y="210" width="140" height="30" as="geometry" />
        </mxCell>
        <mxCell id="lziAy8kxDZokDsshVYhc-15" value="..." style="rounded=0;whiteSpace=wrap;html=1;fontSize=18;fontFamily=Ubuntu;fontSource=https%3A%2F%2Ffonts.googleapis.com%2Fcss%3Ffamily%3DUbuntu;" vertex="1" parent="lziAy8kxDZokDsshVYhc-1">
          <mxGeometry x="490" y="320" width="140" height="40" as="geometry" />
        </mxCell>
        <mxCell id="lziAy8kxDZokDsshVYhc-16" value="&lt;font style=&quot;font-size: 20px;&quot;&gt;&lt;br&gt;&lt;/font&gt;" style="text;html=1;strokeColor=#b85450;fillColor=#f8cecc;align=left;verticalAlign=top;whiteSpace=wrap;rounded=0;fontFamily=Ubuntu;fontSource=https%3A%2F%2Ffonts.googleapis.com%2Fcss%3Ffamily%3DUbuntu;fontSize=20;" vertex="1" parent="lziAy8kxDZokDsshVYhc-1">
          <mxGeometry x="710" y="80" width="480" height="230" as="geometry" />
        </mxCell>
        <mxCell id="lziAy8kxDZokDsshVYhc-17" style="edgeStyle=orthogonalEdgeStyle;rounded=0;orthogonalLoop=1;jettySize=auto;html=1;entryX=0;entryY=0.5;entryDx=0;entryDy=0;" edge="1" parent="lziAy8kxDZokDsshVYhc-1" source="lziAy8kxDZokDsshVYhc-18" target="lziAy8kxDZokDsshVYhc-23">
          <mxGeometry relative="1" as="geometry" />
        </mxCell>
        <mxCell id="lziAy8kxDZokDsshVYhc-18" value="Point p = 0xAF11" style="rounded=0;whiteSpace=wrap;html=1;fontFamily=Ubuntu;fontSource=https%3A%2F%2Ffonts.googleapis.com%2Fcss%3Ffamily%3DUbuntu;fontSize=17;" vertex="1" parent="lziAy8kxDZokDsshVYhc-1">
          <mxGeometry x="80" y="500" width="320" height="40" as="geometry" />
        </mxCell>
        <mxCell id="lziAy8kxDZokDsshVYhc-19" value="int x = 10" style="rounded=0;whiteSpace=wrap;html=1;fontFamily=Ubuntu;fontSource=https%3A%2F%2Ffonts.googleapis.com%2Fcss%3Ffamily%3DUbuntu;fontSize=18;" vertex="1" parent="lziAy8kxDZokDsshVYhc-1">
          <mxGeometry x="550" y="400" width="120" height="40" as="geometry" />
        </mxCell>
        <mxCell id="lziAy8kxDZokDsshVYhc-20" value="int y = 20" style="rounded=0;whiteSpace=wrap;html=1;fontFamily=Ubuntu;fontSource=https%3A%2F%2Ffonts.googleapis.com%2Fcss%3Ffamily%3DUbuntu;fontSize=18;" vertex="1" parent="lziAy8kxDZokDsshVYhc-1">
          <mxGeometry x="550" y="440" width="120" height="40" as="geometry" />
        </mxCell>
        <mxCell id="lziAy8kxDZokDsshVYhc-21" value="toString()" style="rounded=0;whiteSpace=wrap;html=1;fontFamily=Ubuntu;fontSource=https%3A%2F%2Ffonts.googleapis.com%2Fcss%3Ffamily%3DUbuntu;fontSize=18;" vertex="1" parent="lziAy8kxDZokDsshVYhc-1">
          <mxGeometry x="550" y="480" width="120" height="40" as="geometry" />
        </mxCell>
        <mxCell id="lziAy8kxDZokDsshVYhc-22" value="...." style="rounded=0;whiteSpace=wrap;html=1;fontFamily=Ubuntu;fontSource=https%3A%2F%2Ffonts.googleapis.com%2Fcss%3Ffamily%3DUbuntu;fontSize=18;" vertex="1" parent="lziAy8kxDZokDsshVYhc-1">
          <mxGeometry x="550" y="516.88" width="120" height="40" as="geometry" />
        </mxCell>
        <mxCell id="lziAy8kxDZokDsshVYhc-23" value="0xAF11" style="rounded=0;whiteSpace=wrap;html=1;fontFamily=Ubuntu;fontSource=https%3A%2F%2Ffonts.googleapis.com%2Fcss%3Ffamily%3DUbuntu;fontSize=17;fillColor=#dae8fc;strokeColor=#6c8ebf;" vertex="1" parent="lziAy8kxDZokDsshVYhc-1">
          <mxGeometry x="550" y="370" width="120" height="30" as="geometry" />
        </mxCell>
        <mxCell id="lziAy8kxDZokDsshVYhc-26" style="edgeStyle=orthogonalEdgeStyle;rounded=0;orthogonalLoop=1;jettySize=auto;html=1;entryX=0;entryY=0.25;entryDx=0;entryDy=0;" edge="1" parent="lziAy8kxDZokDsshVYhc-1" target="lziAy8kxDZokDsshVYhc-33">
          <mxGeometry relative="1" as="geometry">
            <mxPoint x="400" y="370" as="sourcePoint" />
            <Array as="points">
              <mxPoint x="510" y="370" />
              <mxPoint x="510" y="348" />
            </Array>
          </mxGeometry>
        </mxCell>
        <mxCell id="lziAy8kxDZokDsshVYhc-29" value="int x = 50" style="rounded=0;whiteSpace=wrap;html=1;fontFamily=Ubuntu;fontSource=https%3A%2F%2Ffonts.googleapis.com%2Fcss%3Ffamily%3DUbuntu;fontSize=18;" vertex="1" parent="lziAy8kxDZokDsshVYhc-1">
          <mxGeometry x="700" y="370" width="120" height="40" as="geometry" />
        </mxCell>
        <mxCell id="lziAy8kxDZokDsshVYhc-30" value="int y = 50" style="rounded=0;whiteSpace=wrap;html=1;fontFamily=Ubuntu;fontSource=https%3A%2F%2Ffonts.googleapis.com%2Fcss%3Ffamily%3DUbuntu;fontSize=18;" vertex="1" parent="lziAy8kxDZokDsshVYhc-1">
          <mxGeometry x="700" y="410" width="120" height="40" as="geometry" />
        </mxCell>
        <mxCell id="lziAy8kxDZokDsshVYhc-31" value="toString()" style="rounded=0;whiteSpace=wrap;html=1;fontFamily=Ubuntu;fontSource=https%3A%2F%2Ffonts.googleapis.com%2Fcss%3Ffamily%3DUbuntu;fontSize=18;" vertex="1" parent="lziAy8kxDZokDsshVYhc-1">
          <mxGeometry x="700" y="450" width="120" height="40" as="geometry" />
        </mxCell>
        <mxCell id="lziAy8kxDZokDsshVYhc-32" value="...." style="rounded=0;whiteSpace=wrap;html=1;fontFamily=Ubuntu;fontSource=https%3A%2F%2Ffonts.googleapis.com%2Fcss%3Ffamily%3DUbuntu;fontSize=18;" vertex="1" parent="lziAy8kxDZokDsshVYhc-1">
          <mxGeometry x="700" y="486.88" width="120" height="40" as="geometry" />
        </mxCell>
        <mxCell id="lziAy8kxDZokDsshVYhc-33" value="0xAF12" style="rounded=0;whiteSpace=wrap;html=1;fontFamily=Ubuntu;fontSource=https%3A%2F%2Ffonts.googleapis.com%2Fcss%3Ffamily%3DUbuntu;fontSize=17;fillColor=#dae8fc;strokeColor=#6c8ebf;" vertex="1" parent="lziAy8kxDZokDsshVYhc-1">
          <mxGeometry x="700" y="340" width="120" height="30" as="geometry" />
        </mxCell>
      </root>
    </mxGraphModel>
  </diagram>
  <diagram name="Page-5" id="kiZCjGxLP5uOxhItLj_r">
    <mxGraphModel dx="879" dy="594" grid="1" gridSize="10" guides="1" tooltips="1" connect="1" arrows="1" fold="1" page="1" pageScale="1" pageWidth="1100" pageHeight="850" math="0" shadow="0">
      <root>
        <mxCell id="iBr5yDgtOY48ohD-c5T1-0" />
        <mxCell id="iBr5yDgtOY48ohD-c5T1-1" parent="iBr5yDgtOY48ohD-c5T1-0" />
        <mxCell id="iBr5yDgtOY48ohD-c5T1-2" value="" style="rounded=0;whiteSpace=wrap;html=1;" vertex="1" parent="iBr5yDgtOY48ohD-c5T1-1">
          <mxGeometry x="80" y="50" width="320" height="530" as="geometry" />
        </mxCell>
        <mxCell id="iBr5yDgtOY48ohD-c5T1-3" value="" style="rounded=0;whiteSpace=wrap;html=1;" vertex="1" parent="iBr5yDgtOY48ohD-c5T1-1">
          <mxGeometry x="400" y="50" width="640" height="530" as="geometry" />
        </mxCell>
        <mxCell id="iBr5yDgtOY48ohD-c5T1-4" value="main thread" style="shape=hexagon;perimeter=hexagonPerimeter2;whiteSpace=wrap;html=1;fixedSize=1;fontFamily=Ubuntu;fontSource=https%3A%2F%2Ffonts.googleapis.com%2Fcss%3Ffamily%3DUbuntu;fontSize=17;" vertex="1" parent="iBr5yDgtOY48ohD-c5T1-1">
          <mxGeometry x="180" y="10" width="120" height="30" as="geometry" />
        </mxCell>
        <mxCell id="iBr5yDgtOY48ohD-c5T1-5" value="STACK" style="text;html=1;strokeColor=none;fillColor=none;align=center;verticalAlign=middle;whiteSpace=wrap;rounded=0;fontFamily=Ubuntu;fontSource=https%3A%2F%2Ffonts.googleapis.com%2Fcss%3Ffamily%3DUbuntu;fontSize=16;fontStyle=1" vertex="1" parent="iBr5yDgtOY48ohD-c5T1-1">
          <mxGeometry x="200" y="590" width="60" height="30" as="geometry" />
        </mxCell>
        <mxCell id="iBr5yDgtOY48ohD-c5T1-6" value="HEAP" style="text;html=1;strokeColor=none;fillColor=none;align=center;verticalAlign=middle;whiteSpace=wrap;rounded=0;fontFamily=Ubuntu;fontSource=https%3A%2F%2Ffonts.googleapis.com%2Fcss%3Ffamily%3DUbuntu;fontSize=16;fontStyle=1" vertex="1" parent="iBr5yDgtOY48ohD-c5T1-1">
          <mxGeometry x="510" y="590" width="60" height="30" as="geometry" />
        </mxCell>
        <mxCell id="iBr5yDgtOY48ohD-c5T1-7" value="" style="rounded=0;whiteSpace=wrap;html=1;fillColor=#d5e8d4;strokeColor=#82b366;strokeWidth=10;" vertex="1" parent="iBr5yDgtOY48ohD-c5T1-1">
          <mxGeometry x="80" y="460" width="320" height="120" as="geometry" />
        </mxCell>
        <mxCell id="iBr5yDgtOY48ohD-c5T1-8" value="main()" style="text;html=1;strokeColor=#82b366;fillColor=#d5e8d4;align=center;verticalAlign=middle;whiteSpace=wrap;rounded=0;fontFamily=Ubuntu;fontSource=https%3A%2F%2Ffonts.googleapis.com%2Fcss%3Ffamily%3DUbuntu;fontSize=17;rotation=-90;" vertex="1" parent="iBr5yDgtOY48ohD-c5T1-1">
          <mxGeometry x="6.88" y="526.88" width="86.25" height="30" as="geometry" />
        </mxCell>
        <mxCell id="iBr5yDgtOY48ohD-c5T1-9" style="edgeStyle=orthogonalEdgeStyle;rounded=0;orthogonalLoop=1;jettySize=auto;html=1;entryX=0;entryY=0.5;entryDx=0;entryDy=0;" edge="1" parent="iBr5yDgtOY48ohD-c5T1-1" source="iBr5yDgtOY48ohD-c5T1-10" target="iBr5yDgtOY48ohD-c5T1-14">
          <mxGeometry relative="1" as="geometry" />
        </mxCell>
        <mxCell id="iBr5yDgtOY48ohD-c5T1-10" value="String[] args = 0xAF10" style="rounded=0;whiteSpace=wrap;html=1;fontFamily=Ubuntu;fontSource=https%3A%2F%2Ffonts.googleapis.com%2Fcss%3Ffamily%3DUbuntu;fontSize=17;" vertex="1" parent="iBr5yDgtOY48ohD-c5T1-1">
          <mxGeometry x="80" y="460" width="320" height="40" as="geometry" />
        </mxCell>
        <mxCell id="iBr5yDgtOY48ohD-c5T1-11" value="..." style="rounded=0;whiteSpace=wrap;html=1;fontFamily=Ubuntu;fontSource=https%3A%2F%2Ffonts.googleapis.com%2Fcss%3Ffamily%3DUbuntu;fontSize=17;" vertex="1" parent="iBr5yDgtOY48ohD-c5T1-1">
          <mxGeometry x="80" y="540" width="320" height="40" as="geometry" />
        </mxCell>
        <mxCell id="iBr5yDgtOY48ohD-c5T1-12" value="" style="rounded=0;whiteSpace=wrap;html=1;" vertex="1" parent="iBr5yDgtOY48ohD-c5T1-1">
          <mxGeometry x="490" y="240" width="20" height="40" as="geometry" />
        </mxCell>
        <mxCell id="iBr5yDgtOY48ohD-c5T1-13" value="int length = 0" style="rounded=0;whiteSpace=wrap;html=1;fontSize=18;fontFamily=Ubuntu;fontSource=https%3A%2F%2Ffonts.googleapis.com%2Fcss%3Ffamily%3DUbuntu;" vertex="1" parent="iBr5yDgtOY48ohD-c5T1-1">
          <mxGeometry x="490" y="280" width="140" height="40" as="geometry" />
        </mxCell>
        <mxCell id="iBr5yDgtOY48ohD-c5T1-14" value="0xAF10" style="rounded=0;whiteSpace=wrap;html=1;fontFamily=Ubuntu;fontSource=https%3A%2F%2Ffonts.googleapis.com%2Fcss%3Ffamily%3DUbuntu;fontSize=17;fillColor=#dae8fc;strokeColor=#6c8ebf;" vertex="1" parent="iBr5yDgtOY48ohD-c5T1-1">
          <mxGeometry x="490" y="210" width="140" height="30" as="geometry" />
        </mxCell>
        <mxCell id="iBr5yDgtOY48ohD-c5T1-15" value="..." style="rounded=0;whiteSpace=wrap;html=1;fontSize=18;fontFamily=Ubuntu;fontSource=https%3A%2F%2Ffonts.googleapis.com%2Fcss%3Ffamily%3DUbuntu;" vertex="1" parent="iBr5yDgtOY48ohD-c5T1-1">
          <mxGeometry x="490" y="320" width="140" height="40" as="geometry" />
        </mxCell>
        <mxCell id="iBr5yDgtOY48ohD-c5T1-16" value="&lt;font style=&quot;font-size: 20px;&quot;&gt;&lt;br&gt;&lt;/font&gt;" style="text;html=1;strokeColor=#b85450;fillColor=#f8cecc;align=left;verticalAlign=top;whiteSpace=wrap;rounded=0;fontFamily=Ubuntu;fontSource=https%3A%2F%2Ffonts.googleapis.com%2Fcss%3Ffamily%3DUbuntu;fontSize=20;" vertex="1" parent="iBr5yDgtOY48ohD-c5T1-1">
          <mxGeometry x="710" y="80" width="480" height="230" as="geometry" />
        </mxCell>
        <mxCell id="iBr5yDgtOY48ohD-c5T1-17" style="edgeStyle=orthogonalEdgeStyle;rounded=0;orthogonalLoop=1;jettySize=auto;html=1;entryX=0;entryY=0.5;entryDx=0;entryDy=0;" edge="1" parent="iBr5yDgtOY48ohD-c5T1-1" source="iBr5yDgtOY48ohD-c5T1-18" target="iBr5yDgtOY48ohD-c5T1-23">
          <mxGeometry relative="1" as="geometry" />
        </mxCell>
        <mxCell id="iBr5yDgtOY48ohD-c5T1-18" value="Point p = 0xAF11" style="rounded=0;whiteSpace=wrap;html=1;fontFamily=Ubuntu;fontSource=https%3A%2F%2Ffonts.googleapis.com%2Fcss%3Ffamily%3DUbuntu;fontSize=17;" vertex="1" parent="iBr5yDgtOY48ohD-c5T1-1">
          <mxGeometry x="80" y="500" width="320" height="40" as="geometry" />
        </mxCell>
        <mxCell id="iBr5yDgtOY48ohD-c5T1-19" value="int x = 20" style="rounded=0;whiteSpace=wrap;html=1;fontFamily=Ubuntu;fontSource=https%3A%2F%2Ffonts.googleapis.com%2Fcss%3Ffamily%3DUbuntu;fontSize=18;" vertex="1" parent="iBr5yDgtOY48ohD-c5T1-1">
          <mxGeometry x="550" y="400" width="120" height="40" as="geometry" />
        </mxCell>
        <mxCell id="iBr5yDgtOY48ohD-c5T1-20" value="int y = 30" style="rounded=0;whiteSpace=wrap;html=1;fontFamily=Ubuntu;fontSource=https%3A%2F%2Ffonts.googleapis.com%2Fcss%3Ffamily%3DUbuntu;fontSize=18;" vertex="1" parent="iBr5yDgtOY48ohD-c5T1-1">
          <mxGeometry x="550" y="440" width="120" height="40" as="geometry" />
        </mxCell>
        <mxCell id="iBr5yDgtOY48ohD-c5T1-21" value="toString()" style="rounded=0;whiteSpace=wrap;html=1;fontFamily=Ubuntu;fontSource=https%3A%2F%2Ffonts.googleapis.com%2Fcss%3Ffamily%3DUbuntu;fontSize=18;" vertex="1" parent="iBr5yDgtOY48ohD-c5T1-1">
          <mxGeometry x="550" y="480" width="120" height="40" as="geometry" />
        </mxCell>
        <mxCell id="iBr5yDgtOY48ohD-c5T1-22" value="...." style="rounded=0;whiteSpace=wrap;html=1;fontFamily=Ubuntu;fontSource=https%3A%2F%2Ffonts.googleapis.com%2Fcss%3Ffamily%3DUbuntu;fontSize=18;" vertex="1" parent="iBr5yDgtOY48ohD-c5T1-1">
          <mxGeometry x="550" y="516.88" width="120" height="40" as="geometry" />
        </mxCell>
        <mxCell id="iBr5yDgtOY48ohD-c5T1-23" value="0xAF11" style="rounded=0;whiteSpace=wrap;html=1;fontFamily=Ubuntu;fontSource=https%3A%2F%2Ffonts.googleapis.com%2Fcss%3Ffamily%3DUbuntu;fontSize=17;fillColor=#dae8fc;strokeColor=#6c8ebf;" vertex="1" parent="iBr5yDgtOY48ohD-c5T1-1">
          <mxGeometry x="550" y="370" width="120" height="30" as="geometry" />
        </mxCell>
        <mxCell id="iBr5yDgtOY48ohD-c5T1-25" value="int x = 50" style="rounded=0;whiteSpace=wrap;html=1;fontFamily=Ubuntu;fontSource=https%3A%2F%2Ffonts.googleapis.com%2Fcss%3Ffamily%3DUbuntu;fontSize=18;" vertex="1" parent="iBr5yDgtOY48ohD-c5T1-1">
          <mxGeometry x="700" y="370" width="120" height="40" as="geometry" />
        </mxCell>
        <mxCell id="iBr5yDgtOY48ohD-c5T1-26" value="int y = 50" style="rounded=0;whiteSpace=wrap;html=1;fontFamily=Ubuntu;fontSource=https%3A%2F%2Ffonts.googleapis.com%2Fcss%3Ffamily%3DUbuntu;fontSize=18;" vertex="1" parent="iBr5yDgtOY48ohD-c5T1-1">
          <mxGeometry x="700" y="410" width="120" height="40" as="geometry" />
        </mxCell>
        <mxCell id="iBr5yDgtOY48ohD-c5T1-27" value="toString()" style="rounded=0;whiteSpace=wrap;html=1;fontFamily=Ubuntu;fontSource=https%3A%2F%2Ffonts.googleapis.com%2Fcss%3Ffamily%3DUbuntu;fontSize=18;" vertex="1" parent="iBr5yDgtOY48ohD-c5T1-1">
          <mxGeometry x="700" y="450" width="120" height="40" as="geometry" />
        </mxCell>
        <mxCell id="iBr5yDgtOY48ohD-c5T1-28" value="...." style="rounded=0;whiteSpace=wrap;html=1;fontFamily=Ubuntu;fontSource=https%3A%2F%2Ffonts.googleapis.com%2Fcss%3Ffamily%3DUbuntu;fontSize=18;" vertex="1" parent="iBr5yDgtOY48ohD-c5T1-1">
          <mxGeometry x="700" y="486.88" width="120" height="40" as="geometry" />
        </mxCell>
        <mxCell id="iBr5yDgtOY48ohD-c5T1-29" value="0xAF12" style="rounded=0;whiteSpace=wrap;html=1;fontFamily=Ubuntu;fontSource=https%3A%2F%2Ffonts.googleapis.com%2Fcss%3Ffamily%3DUbuntu;fontSize=17;fillColor=#dae8fc;strokeColor=#6c8ebf;" vertex="1" parent="iBr5yDgtOY48ohD-c5T1-1">
          <mxGeometry x="700" y="340" width="120" height="30" as="geometry" />
        </mxCell>
        <mxCell id="QoV_pwrqiwwJzmFvaxFQ-0" value="" style="rounded=0;whiteSpace=wrap;html=1;fillColor=#e1d5e7;strokeColor=#9673a6;strokeWidth=10;" vertex="1" parent="iBr5yDgtOY48ohD-c5T1-1">
          <mxGeometry x="80" y="370" width="320" height="80" as="geometry" />
        </mxCell>
        <mxCell id="QoV_pwrqiwwJzmFvaxFQ-1" value="updatePoints2()" style="text;html=1;strokeColor=#9673a6;fillColor=#e1d5e7;align=center;verticalAlign=middle;whiteSpace=wrap;rounded=0;fontFamily=Ubuntu;fontSource=https%3A%2F%2Ffonts.googleapis.com%2Fcss%3Ffamily%3DUbuntu;fontSize=17;rotation=-90;" vertex="1" parent="iBr5yDgtOY48ohD-c5T1-1">
          <mxGeometry x="-21.56" y="380" width="143.12" height="30" as="geometry" />
        </mxCell>
        <mxCell id="QoV_pwrqiwwJzmFvaxFQ-4" style="edgeStyle=orthogonalEdgeStyle;rounded=0;orthogonalLoop=1;jettySize=auto;html=1;entryX=0;entryY=0.5;entryDx=0;entryDy=0;" edge="1" parent="iBr5yDgtOY48ohD-c5T1-1" source="QoV_pwrqiwwJzmFvaxFQ-2" target="iBr5yDgtOY48ohD-c5T1-23">
          <mxGeometry relative="1" as="geometry" />
        </mxCell>
        <mxCell id="QoV_pwrqiwwJzmFvaxFQ-2" value="Point p&amp;nbsp; = 0xAF11" style="rounded=0;whiteSpace=wrap;html=1;fontFamily=Ubuntu;fontSource=https%3A%2F%2Ffonts.googleapis.com%2Fcss%3Ffamily%3DUbuntu;fontSize=17;" vertex="1" parent="iBr5yDgtOY48ohD-c5T1-1">
          <mxGeometry x="80" y="370" width="320" height="40" as="geometry" />
        </mxCell>
        <mxCell id="QoV_pwrqiwwJzmFvaxFQ-3" value="..." style="rounded=0;whiteSpace=wrap;html=1;fontFamily=Ubuntu;fontSource=https%3A%2F%2Ffonts.googleapis.com%2Fcss%3Ffamily%3DUbuntu;fontSize=17;" vertex="1" parent="iBr5yDgtOY48ohD-c5T1-1">
          <mxGeometry x="80" y="410" width="320" height="40" as="geometry" />
        </mxCell>
      </root>
    </mxGraphModel>
  </diagram>
  <diagram name="Page-6" id="6omZCKub7en3e0i6CSzE">
    <mxGraphModel dx="879" dy="594" grid="1" gridSize="10" guides="1" tooltips="1" connect="1" arrows="1" fold="1" page="1" pageScale="1" pageWidth="1100" pageHeight="850" math="0" shadow="0">
      <root>
        <mxCell id="DFKBwJcKSsSz6HhijXNx-0" />
        <mxCell id="DFKBwJcKSsSz6HhijXNx-1" parent="DFKBwJcKSsSz6HhijXNx-0" />
        <mxCell id="DFKBwJcKSsSz6HhijXNx-2" value="" style="rounded=0;whiteSpace=wrap;html=1;" vertex="1" parent="DFKBwJcKSsSz6HhijXNx-1">
          <mxGeometry x="80" y="50" width="320" height="530" as="geometry" />
        </mxCell>
        <mxCell id="DFKBwJcKSsSz6HhijXNx-3" value="" style="rounded=0;whiteSpace=wrap;html=1;" vertex="1" parent="DFKBwJcKSsSz6HhijXNx-1">
          <mxGeometry x="400" y="50" width="640" height="530" as="geometry" />
        </mxCell>
        <mxCell id="DFKBwJcKSsSz6HhijXNx-4" value="main thread" style="shape=hexagon;perimeter=hexagonPerimeter2;whiteSpace=wrap;html=1;fixedSize=1;fontFamily=Ubuntu;fontSource=https%3A%2F%2Ffonts.googleapis.com%2Fcss%3Ffamily%3DUbuntu;fontSize=17;" vertex="1" parent="DFKBwJcKSsSz6HhijXNx-1">
          <mxGeometry x="180" y="10" width="120" height="30" as="geometry" />
        </mxCell>
        <mxCell id="DFKBwJcKSsSz6HhijXNx-5" value="STACK" style="text;html=1;strokeColor=none;fillColor=none;align=center;verticalAlign=middle;whiteSpace=wrap;rounded=0;fontFamily=Ubuntu;fontSource=https%3A%2F%2Ffonts.googleapis.com%2Fcss%3Ffamily%3DUbuntu;fontSize=16;fontStyle=1" vertex="1" parent="DFKBwJcKSsSz6HhijXNx-1">
          <mxGeometry x="200" y="590" width="60" height="30" as="geometry" />
        </mxCell>
        <mxCell id="DFKBwJcKSsSz6HhijXNx-6" value="HEAP" style="text;html=1;strokeColor=none;fillColor=none;align=center;verticalAlign=middle;whiteSpace=wrap;rounded=0;fontFamily=Ubuntu;fontSource=https%3A%2F%2Ffonts.googleapis.com%2Fcss%3Ffamily%3DUbuntu;fontSize=16;fontStyle=1" vertex="1" parent="DFKBwJcKSsSz6HhijXNx-1">
          <mxGeometry x="510" y="590" width="60" height="30" as="geometry" />
        </mxCell>
        <mxCell id="DFKBwJcKSsSz6HhijXNx-7" value="" style="rounded=0;whiteSpace=wrap;html=1;fillColor=#d5e8d4;strokeColor=#82b366;strokeWidth=10;" vertex="1" parent="DFKBwJcKSsSz6HhijXNx-1">
          <mxGeometry x="80" y="460" width="320" height="120" as="geometry" />
        </mxCell>
        <mxCell id="DFKBwJcKSsSz6HhijXNx-8" value="main()" style="text;html=1;strokeColor=#82b366;fillColor=#d5e8d4;align=center;verticalAlign=middle;whiteSpace=wrap;rounded=0;fontFamily=Ubuntu;fontSource=https%3A%2F%2Ffonts.googleapis.com%2Fcss%3Ffamily%3DUbuntu;fontSize=17;rotation=-90;" vertex="1" parent="DFKBwJcKSsSz6HhijXNx-1">
          <mxGeometry x="6.88" y="526.88" width="86.25" height="30" as="geometry" />
        </mxCell>
        <mxCell id="DFKBwJcKSsSz6HhijXNx-9" style="edgeStyle=orthogonalEdgeStyle;rounded=0;orthogonalLoop=1;jettySize=auto;html=1;entryX=0;entryY=0.5;entryDx=0;entryDy=0;" edge="1" parent="DFKBwJcKSsSz6HhijXNx-1" source="DFKBwJcKSsSz6HhijXNx-10" target="DFKBwJcKSsSz6HhijXNx-14">
          <mxGeometry relative="1" as="geometry" />
        </mxCell>
        <mxCell id="DFKBwJcKSsSz6HhijXNx-10" value="String[] args = 0xAF10" style="rounded=0;whiteSpace=wrap;html=1;fontFamily=Ubuntu;fontSource=https%3A%2F%2Ffonts.googleapis.com%2Fcss%3Ffamily%3DUbuntu;fontSize=17;" vertex="1" parent="DFKBwJcKSsSz6HhijXNx-1">
          <mxGeometry x="80" y="460" width="320" height="40" as="geometry" />
        </mxCell>
        <mxCell id="DFKBwJcKSsSz6HhijXNx-11" value="..." style="rounded=0;whiteSpace=wrap;html=1;fontFamily=Ubuntu;fontSource=https%3A%2F%2Ffonts.googleapis.com%2Fcss%3Ffamily%3DUbuntu;fontSize=17;" vertex="1" parent="DFKBwJcKSsSz6HhijXNx-1">
          <mxGeometry x="80" y="540" width="320" height="40" as="geometry" />
        </mxCell>
        <mxCell id="DFKBwJcKSsSz6HhijXNx-12" value="" style="rounded=0;whiteSpace=wrap;html=1;" vertex="1" parent="DFKBwJcKSsSz6HhijXNx-1">
          <mxGeometry x="490" y="240" width="20" height="40" as="geometry" />
        </mxCell>
        <mxCell id="DFKBwJcKSsSz6HhijXNx-13" value="int length = 0" style="rounded=0;whiteSpace=wrap;html=1;fontSize=18;fontFamily=Ubuntu;fontSource=https%3A%2F%2Ffonts.googleapis.com%2Fcss%3Ffamily%3DUbuntu;" vertex="1" parent="DFKBwJcKSsSz6HhijXNx-1">
          <mxGeometry x="490" y="280" width="140" height="40" as="geometry" />
        </mxCell>
        <mxCell id="DFKBwJcKSsSz6HhijXNx-14" value="0xAF10" style="rounded=0;whiteSpace=wrap;html=1;fontFamily=Ubuntu;fontSource=https%3A%2F%2Ffonts.googleapis.com%2Fcss%3Ffamily%3DUbuntu;fontSize=17;fillColor=#dae8fc;strokeColor=#6c8ebf;" vertex="1" parent="DFKBwJcKSsSz6HhijXNx-1">
          <mxGeometry x="490" y="210" width="140" height="30" as="geometry" />
        </mxCell>
        <mxCell id="DFKBwJcKSsSz6HhijXNx-15" value="..." style="rounded=0;whiteSpace=wrap;html=1;fontSize=18;fontFamily=Ubuntu;fontSource=https%3A%2F%2Ffonts.googleapis.com%2Fcss%3Ffamily%3DUbuntu;" vertex="1" parent="DFKBwJcKSsSz6HhijXNx-1">
          <mxGeometry x="490" y="320" width="140" height="40" as="geometry" />
        </mxCell>
        <mxCell id="DFKBwJcKSsSz6HhijXNx-16" value="&lt;font style=&quot;font-size: 20px;&quot;&gt;&lt;br&gt;&lt;/font&gt;" style="text;html=1;strokeColor=#b85450;fillColor=#f8cecc;align=left;verticalAlign=top;whiteSpace=wrap;rounded=0;fontFamily=Ubuntu;fontSource=https%3A%2F%2Ffonts.googleapis.com%2Fcss%3Ffamily%3DUbuntu;fontSize=20;" vertex="1" parent="DFKBwJcKSsSz6HhijXNx-1">
          <mxGeometry x="710" y="80" width="480" height="230" as="geometry" />
        </mxCell>
        <mxCell id="DFKBwJcKSsSz6HhijXNx-17" style="edgeStyle=orthogonalEdgeStyle;rounded=0;orthogonalLoop=1;jettySize=auto;html=1;entryX=0;entryY=0.5;entryDx=0;entryDy=0;" edge="1" parent="DFKBwJcKSsSz6HhijXNx-1" source="DFKBwJcKSsSz6HhijXNx-18" target="DFKBwJcKSsSz6HhijXNx-23">
          <mxGeometry relative="1" as="geometry" />
        </mxCell>
        <mxCell id="DFKBwJcKSsSz6HhijXNx-18" value="Point p = 0xAF11" style="rounded=0;whiteSpace=wrap;html=1;fontFamily=Ubuntu;fontSource=https%3A%2F%2Ffonts.googleapis.com%2Fcss%3Ffamily%3DUbuntu;fontSize=17;" vertex="1" parent="DFKBwJcKSsSz6HhijXNx-1">
          <mxGeometry x="80" y="500" width="320" height="40" as="geometry" />
        </mxCell>
        <mxCell id="DFKBwJcKSsSz6HhijXNx-19" value="int x = 20" style="rounded=0;whiteSpace=wrap;html=1;fontFamily=Ubuntu;fontSource=https%3A%2F%2Ffonts.googleapis.com%2Fcss%3Ffamily%3DUbuntu;fontSize=18;" vertex="1" parent="DFKBwJcKSsSz6HhijXNx-1">
          <mxGeometry x="550" y="400" width="120" height="40" as="geometry" />
        </mxCell>
        <mxCell id="DFKBwJcKSsSz6HhijXNx-20" value="int y = 30" style="rounded=0;whiteSpace=wrap;html=1;fontFamily=Ubuntu;fontSource=https%3A%2F%2Ffonts.googleapis.com%2Fcss%3Ffamily%3DUbuntu;fontSize=18;" vertex="1" parent="DFKBwJcKSsSz6HhijXNx-1">
          <mxGeometry x="550" y="440" width="120" height="40" as="geometry" />
        </mxCell>
        <mxCell id="DFKBwJcKSsSz6HhijXNx-21" value="toString()" style="rounded=0;whiteSpace=wrap;html=1;fontFamily=Ubuntu;fontSource=https%3A%2F%2Ffonts.googleapis.com%2Fcss%3Ffamily%3DUbuntu;fontSize=18;" vertex="1" parent="DFKBwJcKSsSz6HhijXNx-1">
          <mxGeometry x="550" y="480" width="120" height="40" as="geometry" />
        </mxCell>
        <mxCell id="DFKBwJcKSsSz6HhijXNx-22" value="...." style="rounded=0;whiteSpace=wrap;html=1;fontFamily=Ubuntu;fontSource=https%3A%2F%2Ffonts.googleapis.com%2Fcss%3Ffamily%3DUbuntu;fontSize=18;" vertex="1" parent="DFKBwJcKSsSz6HhijXNx-1">
          <mxGeometry x="550" y="516.88" width="120" height="40" as="geometry" />
        </mxCell>
        <mxCell id="DFKBwJcKSsSz6HhijXNx-23" value="0xAF11" style="rounded=0;whiteSpace=wrap;html=1;fontFamily=Ubuntu;fontSource=https%3A%2F%2Ffonts.googleapis.com%2Fcss%3Ffamily%3DUbuntu;fontSize=17;fillColor=#dae8fc;strokeColor=#6c8ebf;" vertex="1" parent="DFKBwJcKSsSz6HhijXNx-1">
          <mxGeometry x="550" y="370" width="120" height="30" as="geometry" />
        </mxCell>
        <mxCell id="DFKBwJcKSsSz6HhijXNx-24" value="int x = 50" style="rounded=0;whiteSpace=wrap;html=1;fontFamily=Ubuntu;fontSource=https%3A%2F%2Ffonts.googleapis.com%2Fcss%3Ffamily%3DUbuntu;fontSize=18;" vertex="1" parent="DFKBwJcKSsSz6HhijXNx-1">
          <mxGeometry x="700" y="370" width="120" height="40" as="geometry" />
        </mxCell>
        <mxCell id="DFKBwJcKSsSz6HhijXNx-25" value="int y = 50" style="rounded=0;whiteSpace=wrap;html=1;fontFamily=Ubuntu;fontSource=https%3A%2F%2Ffonts.googleapis.com%2Fcss%3Ffamily%3DUbuntu;fontSize=18;" vertex="1" parent="DFKBwJcKSsSz6HhijXNx-1">
          <mxGeometry x="700" y="410" width="120" height="40" as="geometry" />
        </mxCell>
        <mxCell id="DFKBwJcKSsSz6HhijXNx-26" value="toString()" style="rounded=0;whiteSpace=wrap;html=1;fontFamily=Ubuntu;fontSource=https%3A%2F%2Ffonts.googleapis.com%2Fcss%3Ffamily%3DUbuntu;fontSize=18;" vertex="1" parent="DFKBwJcKSsSz6HhijXNx-1">
          <mxGeometry x="700" y="450" width="120" height="40" as="geometry" />
        </mxCell>
        <mxCell id="DFKBwJcKSsSz6HhijXNx-27" value="...." style="rounded=0;whiteSpace=wrap;html=1;fontFamily=Ubuntu;fontSource=https%3A%2F%2Ffonts.googleapis.com%2Fcss%3Ffamily%3DUbuntu;fontSize=18;" vertex="1" parent="DFKBwJcKSsSz6HhijXNx-1">
          <mxGeometry x="700" y="486.88" width="120" height="40" as="geometry" />
        </mxCell>
        <mxCell id="DFKBwJcKSsSz6HhijXNx-28" value="0xAF12" style="rounded=0;whiteSpace=wrap;html=1;fontFamily=Ubuntu;fontSource=https%3A%2F%2Ffonts.googleapis.com%2Fcss%3Ffamily%3DUbuntu;fontSize=17;fillColor=#dae8fc;strokeColor=#6c8ebf;" vertex="1" parent="DFKBwJcKSsSz6HhijXNx-1">
          <mxGeometry x="700" y="340" width="120" height="30" as="geometry" />
        </mxCell>
      </root>
    </mxGraphModel>
  </diagram>
  <diagram name="Page-7" id="sr8s7dPI15N4Z9jTwj2O">
    <mxGraphModel dx="879" dy="594" grid="1" gridSize="10" guides="1" tooltips="1" connect="1" arrows="1" fold="1" page="1" pageScale="1" pageWidth="1100" pageHeight="850" math="0" shadow="0">
      <root>
        <mxCell id="F9PGBkgCF_vdE-hocx3c-0" />
        <mxCell id="F9PGBkgCF_vdE-hocx3c-1" parent="F9PGBkgCF_vdE-hocx3c-0" />
        <mxCell id="F9PGBkgCF_vdE-hocx3c-2" value="" style="rounded=0;whiteSpace=wrap;html=1;" vertex="1" parent="F9PGBkgCF_vdE-hocx3c-1">
          <mxGeometry x="80" y="50" width="320" height="530" as="geometry" />
        </mxCell>
        <mxCell id="F9PGBkgCF_vdE-hocx3c-3" value="" style="rounded=0;whiteSpace=wrap;html=1;" vertex="1" parent="F9PGBkgCF_vdE-hocx3c-1">
          <mxGeometry x="400" y="50" width="640" height="530" as="geometry" />
        </mxCell>
        <mxCell id="F9PGBkgCF_vdE-hocx3c-4" value="main thread" style="shape=hexagon;perimeter=hexagonPerimeter2;whiteSpace=wrap;html=1;fixedSize=1;fontFamily=Ubuntu;fontSource=https%3A%2F%2Ffonts.googleapis.com%2Fcss%3Ffamily%3DUbuntu;fontSize=17;" vertex="1" parent="F9PGBkgCF_vdE-hocx3c-1">
          <mxGeometry x="180" y="10" width="120" height="30" as="geometry" />
        </mxCell>
        <mxCell id="F9PGBkgCF_vdE-hocx3c-5" value="STACK" style="text;html=1;strokeColor=none;fillColor=none;align=center;verticalAlign=middle;whiteSpace=wrap;rounded=0;fontFamily=Ubuntu;fontSource=https%3A%2F%2Ffonts.googleapis.com%2Fcss%3Ffamily%3DUbuntu;fontSize=16;fontStyle=1" vertex="1" parent="F9PGBkgCF_vdE-hocx3c-1">
          <mxGeometry x="200" y="590" width="60" height="30" as="geometry" />
        </mxCell>
        <mxCell id="F9PGBkgCF_vdE-hocx3c-6" value="HEAP" style="text;html=1;strokeColor=none;fillColor=none;align=center;verticalAlign=middle;whiteSpace=wrap;rounded=0;fontFamily=Ubuntu;fontSource=https%3A%2F%2Ffonts.googleapis.com%2Fcss%3Ffamily%3DUbuntu;fontSize=16;fontStyle=1" vertex="1" parent="F9PGBkgCF_vdE-hocx3c-1">
          <mxGeometry x="510" y="590" width="60" height="30" as="geometry" />
        </mxCell>
        <mxCell id="F9PGBkgCF_vdE-hocx3c-12" value="" style="rounded=0;whiteSpace=wrap;html=1;" vertex="1" parent="F9PGBkgCF_vdE-hocx3c-1">
          <mxGeometry x="490" y="240" width="20" height="40" as="geometry" />
        </mxCell>
        <mxCell id="F9PGBkgCF_vdE-hocx3c-13" value="int length = 0" style="rounded=0;whiteSpace=wrap;html=1;fontSize=18;fontFamily=Ubuntu;fontSource=https%3A%2F%2Ffonts.googleapis.com%2Fcss%3Ffamily%3DUbuntu;" vertex="1" parent="F9PGBkgCF_vdE-hocx3c-1">
          <mxGeometry x="490" y="280" width="140" height="40" as="geometry" />
        </mxCell>
        <mxCell id="F9PGBkgCF_vdE-hocx3c-14" value="0xAF10" style="rounded=0;whiteSpace=wrap;html=1;fontFamily=Ubuntu;fontSource=https%3A%2F%2Ffonts.googleapis.com%2Fcss%3Ffamily%3DUbuntu;fontSize=17;fillColor=#dae8fc;strokeColor=#6c8ebf;" vertex="1" parent="F9PGBkgCF_vdE-hocx3c-1">
          <mxGeometry x="490" y="210" width="140" height="30" as="geometry" />
        </mxCell>
        <mxCell id="F9PGBkgCF_vdE-hocx3c-15" value="..." style="rounded=0;whiteSpace=wrap;html=1;fontSize=18;fontFamily=Ubuntu;fontSource=https%3A%2F%2Ffonts.googleapis.com%2Fcss%3Ffamily%3DUbuntu;" vertex="1" parent="F9PGBkgCF_vdE-hocx3c-1">
          <mxGeometry x="490" y="320" width="140" height="40" as="geometry" />
        </mxCell>
        <mxCell id="F9PGBkgCF_vdE-hocx3c-16" value="&lt;font style=&quot;font-size: 20px;&quot;&gt;&lt;br&gt;&lt;/font&gt;" style="text;html=1;strokeColor=#b85450;fillColor=#f8cecc;align=left;verticalAlign=top;whiteSpace=wrap;rounded=0;fontFamily=Ubuntu;fontSource=https%3A%2F%2Ffonts.googleapis.com%2Fcss%3Ffamily%3DUbuntu;fontSize=20;" vertex="1" parent="F9PGBkgCF_vdE-hocx3c-1">
          <mxGeometry x="710" y="80" width="480" height="230" as="geometry" />
        </mxCell>
        <mxCell id="F9PGBkgCF_vdE-hocx3c-19" value="int x = 20" style="rounded=0;whiteSpace=wrap;html=1;fontFamily=Ubuntu;fontSource=https%3A%2F%2Ffonts.googleapis.com%2Fcss%3Ffamily%3DUbuntu;fontSize=18;" vertex="1" parent="F9PGBkgCF_vdE-hocx3c-1">
          <mxGeometry x="550" y="400" width="120" height="40" as="geometry" />
        </mxCell>
        <mxCell id="F9PGBkgCF_vdE-hocx3c-20" value="int y = 30" style="rounded=0;whiteSpace=wrap;html=1;fontFamily=Ubuntu;fontSource=https%3A%2F%2Ffonts.googleapis.com%2Fcss%3Ffamily%3DUbuntu;fontSize=18;" vertex="1" parent="F9PGBkgCF_vdE-hocx3c-1">
          <mxGeometry x="550" y="440" width="120" height="40" as="geometry" />
        </mxCell>
        <mxCell id="F9PGBkgCF_vdE-hocx3c-21" value="toString()" style="rounded=0;whiteSpace=wrap;html=1;fontFamily=Ubuntu;fontSource=https%3A%2F%2Ffonts.googleapis.com%2Fcss%3Ffamily%3DUbuntu;fontSize=18;" vertex="1" parent="F9PGBkgCF_vdE-hocx3c-1">
          <mxGeometry x="550" y="480" width="120" height="40" as="geometry" />
        </mxCell>
        <mxCell id="F9PGBkgCF_vdE-hocx3c-22" value="...." style="rounded=0;whiteSpace=wrap;html=1;fontFamily=Ubuntu;fontSource=https%3A%2F%2Ffonts.googleapis.com%2Fcss%3Ffamily%3DUbuntu;fontSize=18;" vertex="1" parent="F9PGBkgCF_vdE-hocx3c-1">
          <mxGeometry x="550" y="516.88" width="120" height="40" as="geometry" />
        </mxCell>
        <mxCell id="F9PGBkgCF_vdE-hocx3c-23" value="0xAF11" style="rounded=0;whiteSpace=wrap;html=1;fontFamily=Ubuntu;fontSource=https%3A%2F%2Ffonts.googleapis.com%2Fcss%3Ffamily%3DUbuntu;fontSize=17;fillColor=#dae8fc;strokeColor=#6c8ebf;" vertex="1" parent="F9PGBkgCF_vdE-hocx3c-1">
          <mxGeometry x="550" y="370" width="120" height="30" as="geometry" />
        </mxCell>
        <mxCell id="F9PGBkgCF_vdE-hocx3c-24" value="int x = 50" style="rounded=0;whiteSpace=wrap;html=1;fontFamily=Ubuntu;fontSource=https%3A%2F%2Ffonts.googleapis.com%2Fcss%3Ffamily%3DUbuntu;fontSize=18;" vertex="1" parent="F9PGBkgCF_vdE-hocx3c-1">
          <mxGeometry x="700" y="370" width="120" height="40" as="geometry" />
        </mxCell>
        <mxCell id="F9PGBkgCF_vdE-hocx3c-25" value="int y = 50" style="rounded=0;whiteSpace=wrap;html=1;fontFamily=Ubuntu;fontSource=https%3A%2F%2Ffonts.googleapis.com%2Fcss%3Ffamily%3DUbuntu;fontSize=18;" vertex="1" parent="F9PGBkgCF_vdE-hocx3c-1">
          <mxGeometry x="700" y="410" width="120" height="40" as="geometry" />
        </mxCell>
        <mxCell id="F9PGBkgCF_vdE-hocx3c-26" value="toString()" style="rounded=0;whiteSpace=wrap;html=1;fontFamily=Ubuntu;fontSource=https%3A%2F%2Ffonts.googleapis.com%2Fcss%3Ffamily%3DUbuntu;fontSize=18;" vertex="1" parent="F9PGBkgCF_vdE-hocx3c-1">
          <mxGeometry x="700" y="450" width="120" height="40" as="geometry" />
        </mxCell>
        <mxCell id="F9PGBkgCF_vdE-hocx3c-27" value="...." style="rounded=0;whiteSpace=wrap;html=1;fontFamily=Ubuntu;fontSource=https%3A%2F%2Ffonts.googleapis.com%2Fcss%3Ffamily%3DUbuntu;fontSize=18;" vertex="1" parent="F9PGBkgCF_vdE-hocx3c-1">
          <mxGeometry x="700" y="486.88" width="120" height="40" as="geometry" />
        </mxCell>
        <mxCell id="F9PGBkgCF_vdE-hocx3c-28" value="0xAF12" style="rounded=0;whiteSpace=wrap;html=1;fontFamily=Ubuntu;fontSource=https%3A%2F%2Ffonts.googleapis.com%2Fcss%3Ffamily%3DUbuntu;fontSize=17;fillColor=#dae8fc;strokeColor=#6c8ebf;" vertex="1" parent="F9PGBkgCF_vdE-hocx3c-1">
          <mxGeometry x="700" y="340" width="120" height="30" as="geometry" />
        </mxCell>
        <mxCell id="kGU4biQkbW-YwSp2JQXL-0" value="" style="shape=stencil(lVfLctswDPwaXTHgmzyn6X9kJk6tqWtnHKePvy9UjSODkDb1TaYXJLAAiOUQHt72T6+7wfPb5Xz6vvs1Pl/2Q/gyeD8e97vzeJGvITwO4eHldN59O5/ej8/z79enCTl9/Tj9nHb4Pdu1Ri1MVp7/zCtMKf9b+DrjD+PxFl+oNYUPxAgfifX+hbIHeKas8c5RitsGNZPvDDLlBgyYYlUGEkIK2wYlXB34CFlcAifkRDkpgyhnum2DVCgUbdAoAJZipaoNUiUGLk0OsDLImVLaNgieWLNUIiXeNvCRnDao7krDqoEr5DVLtVydXDeQGHTpNU+pgKCpaJJapgJIYgrd/tIcoLYF7wwe7t9XKjMxiJjJJXMACJj7nE14UEbc96bgK+i1D29v8AWkeA2fIaHWH3QZrcUbYQIsnxF0vknYhIf5sgWB+n6t4CLkPxr/UU/ahmnw4pKr3/ifK8TbeoD4WHp8hfUcbYNBfkI0eOiPz/c2pG0wXHCGIBwAmwRjgtgQhBOw0pDQf/b3FRBng4cN4Mz+EV4o9+GjaQBRC4AfGTG+I1TmIEiAaI3WDTFZARGL1qiaIhmTDrgkWqPoE2QQM6ihaJIgo96BohYxkfQ1J3okgxPk764sFj2yJYh8JxrxIBPJ5fRNITQ4MAmq6TQhGgVdU58HSaVHQpZ7uSLCFEmuFq4kLsrXgZhFWScds8dKufXFLRyAyptaMXV4qNzlanA9HvuTa48HGVi0w3/jq7/Pn2r8wfGal9AnfLbS40EjL6NiwaOCu5lFi0EAbbl2QMQEmQCQmrj7qfgpXj6Wd+nLeDjMz9rb//t3rCzNb+Dw+Bc=);lineShape=1;" vertex="1" parent="F9PGBkgCF_vdE-hocx3c-1">
          <mxGeometry x="224.52548636712459" y="80.5938378670835" width="487.8895489703348" height="417.87516299692993" as="geometry" />
        </mxCell>
        <mxCell id="kGU4biQkbW-YwSp2JQXL-1" value="" style="shape=stencil(lVjbchoxDP2afdX4Lvs5Tf8jMyGFKYUMobe/r7bMLlhiz4a3xehY1tHFkof49LF9ed8MwX2cT8fvm9+71/N2iF+GEHaH7ea0O8vXEJ+H+PR2PG2+nY4/D6+X3+8vo+T49eP4a9zhzwXnKPoRFNzfacHF/wtfL+L73eFG3FNqSrylZfFAzXXigUJdFs/kQieeKLplcabaH4bx2T3l3Ml7R8UDQCGnAHlauW+u0NMbcOX3PoCJFUGFImAoJm1DFI7DMiCJ0akHNCqApVQp9RGR5EjAx1k46W3IciTAUvHkaw9oFBCAtYaSKRQQGIFi7wd2VIEGLhOJMyATt2VAneN+AsiKBxqqhDL3gEgV+KHyFAgzQA4JQqPNmTsDxNMMAMJSnz/NYw1iQ6+hiQ1IQ6amABmGd2MKffC1QgWUgFYplh4gKQUyrkmoKaMrMXCcAFRoyEpCRgugaEAGnh4BTQMKyGnvnE4IQaxYbVXUFYAxooKEGAFeA1AVGPfLBoA1cG/DDQ+LiGhUoPAT3qsBAE+MgGRowlYXE00MStldQFkBmCNlHK+FNSCtOMLQmsANMQIMrQlHn42NhP3QTEKklaw2GvKjGZQBS/eTtODosyp4BWA8B+txM/W4wf7tut/nM6j2ZeAzSfpwHTC8rhjxMMCZ4hdQBa/kFaBOF9nSPedUtWTyiKVsci5TxXe1V4C5A1nqBlRXJisJaJDuoqrK5CYaljoar1oghjep9EyK1rGLAmVAejDujyQrqNmVvk+FhqygCUU6S68AHnbHpehbS3pX1G8Up5M6NwjISWvIEZZj6fBDb4N0+BUBZhNngHgaAGRKUYAYYf2WOSibOQi1GzJpqUZRJi3U0MjkVvsjyUoGtHpjtKx4YAPr3oHh/kkXygTHgUCld3KYsm9hTo89nzIGAnE3WXYd61HaSEWvShxdhSKetDjeXR8mgbJirlkHR4x74qDwOl2oHQVIpJrB8FQo4qzEHSTSm8cakIZOl8/ZmAXxYHaHzITHdn/ooWlVXD6ub1pvu/3+8iR2+79+A5Oly/tZfP4H);lineShape=1;" vertex="1" parent="F9PGBkgCF_vdE-hocx3c-1">
          <mxGeometry x="212.59098228912694" y="135.58547345097145" width="654.1007807595236" height="423.4358365937512" as="geometry" />
        </mxCell>
      </root>
    </mxGraphModel>
  </diagram>
</mxfile>
